# xmcd
#
# Track frame offsets:
#	150
#	23589
#	43257
#	61132
#	80639
#	99764
#	124073
#	142808
#	160187
#	177124
#	194329
#	208507
#	229744
#	248475
#	270864
#	286819
#	302782
#	318951
#
# Disc length: 4573 seconds
#
# Revision: 0
# Processed by: cddbd v1.5.2PL0 Copyright (c) Steve Scherf et al.
# Submitted via: EasyCDDAExtractor 11.0.2.1
#
DISCID=e211db12
DTITLE=Various Artist - Trance Classics - The Biggest Trance Hits of All Time
DTITLE=[CD1]
DYEAR=2002
DGENRE=Trance
TTITLE0=Trinity-X - Forever
TTITLE1=Scooter - Nessaja
TTITLE2=Karaja - She Moves (La, La, La)(Kenny Hayes Remix)
TTITLE3=N-Trance - Forever (Voodoo and Serano Edit)
TTITLE4=Interactive - Forever Young
TTITLE5=Jurgen Vries - The Theme
TTITLE6=Flip and Fill - Shooting Star
TTITLE7=Scooter - The Logical Song
TTITLE8=Kelly Llorenna - Tell It To My Heart
TTITLE9=Divine Inspiration - The Way (Svenson and Gielen Vocal Remix)
TTITLE10=Dee Dee - Forever
TTITLE11=LAX Project - LA Dreaming (Instrumental Mix)
TTITLE12=Energy 52 - Cafe Del Mar (Marco V Remix)
TTITLE13=Paffendorf - Be Cool
TTITLE14=Tillmann Uhrmacher - On The Run (Ocean To SHore Club Extended)
TTITLE15=Minimalistix - Close Cover
TTITLE16=Alex Gold - Foreign Shore (Instrumental Mix)
TTITLE17=PPK - Resurection
EXTD=YEAR: 2002\n
EXTT0=
EXTT1=
EXTT2=
EXTT3=
EXTT4=
EXTT5=
EXTT6=
EXTT7=
EXTT8=
EXTT9=
EXTT10=
EXTT11=
EXTT12=
EXTT13=
EXTT14=
EXTT15=
EXTT16=
EXTT17=
PLAYORDER=
